<svg xmlns="http://www.w3.org/2000/svg" viewBox="0 0 49 70"><defs/><defs><clipPath id="a"><path fill="#fff" d="M16.4 21.6A5.8 5.8 0 0118 24a6 6 0 012.7-.7c1 0 2 .3 2.7.7a5.8 5.8 0 011.5-2.4 6 6 0 012.4-1.4 5.7 5.7 0 01-.7-2.7c0-1 .2-1.9.7-2.7a6 6 0 01-2.4-1.4 5.8 5.8 0 01-1.5-2.4 6 6 0 01-2.7.7 6 6 0 01-2.7-.7 5.8 5.8 0 01-1.5 2.4 6 6 0 01-2.4 1.4 5.7 5.7 0 010 5.4 6 6 0 012.4 1.4zM8 5.1a6 6 0 017-1A6 6 0 0120.6 0a6 6 0 015.6 4 6 6 0 017 1.1 5.8 5.8 0 011 6.8 5.8 5.8 0 010 11.1 5.8 5.8 0 01-1 6.9 6 6 0 01-7 1 6 6 0 01-5.6 4.1 6 6 0 01-5.6-4 6 6 0 01-7-1.1A5.8 5.8 0 017 23c-2.4-.8-4.2-3-4.2-5.6 0-2.6 1.8-4.8 4.2-5.6a5.8 5.8 0 011-6.8z"/></clipPath><clipPath id="b"><path fill="#fff" d="M20.6 7c5.9 0 10.6 4.7 10.6 10.5S26.5 28 20.6 28 9.9 23.3 9.9 17.5 14.7 7 20.6 7z"/></clipPath><clipPath id="c"><path fill="#fff" d="M21.5 56.7l-1-1 13.9-13.9 1 1z"/></clipPath><clipPath id="d"><path fill="#fff" d="M21.6 55.1l-1 1.8L3.2 39.6l1-1.8z"/></clipPath><clipPath id="e"><path fill="#fff" d="M49 30s-1 14.4-5.2 18.6c-4.3 4.2-10.8 4.6-14.5.9-3.8-3.7-3.4-10.1.9-14.4C34.5 31 49 30 49 30z"/></clipPath><clipPath id="f"><path fill="#fff" d="M0 36.4S.7 46.9 3.8 50c3.2 3 7.9 3.4 10.6.7 2.8-2.8 2.5-7.4-.6-10.5S0 36.4 0 36.4z"/></clipPath></defs><path fill="#fff" d="M20 33.3h2V70h-2z"/><path fill="none" stroke="#fff" stroke-miterlimit="50" stroke-width="6" d="M16.4 21.6A5.8 5.8 0 0118 24a6 6 0 012.7-.7c1 0 2 .3 2.7.7a5.8 5.8 0 011.5-2.4 6 6 0 012.4-1.4 5.7 5.7 0 01-.7-2.7c0-1 .2-1.9.7-2.7a6 6 0 01-2.4-1.4 5.8 5.8 0 01-1.5-2.4 6 6 0 01-2.7.7 6 6 0 01-2.7-.7 5.8 5.8 0 01-1.5 2.4 6 6 0 01-2.4 1.4 5.7 5.7 0 010 5.4 6 6 0 012.4 1.4zM8 5.1a6 6 0 017-1A6 6 0 0120.6 0a6 6 0 015.6 4 6 6 0 017 1.1 5.8 5.8 0 011 6.8 5.8 5.8 0 010 11.1 5.8 5.8 0 01-1 6.9 6 6 0 01-7 1 6 6 0 01-5.6 4.1 6 6 0 01-5.6-4 6 6 0 01-7-1.1A5.8 5.8 0 017 23c-2.4-.8-4.2-3-4.2-5.6 0-2.6 1.8-4.8 4.2-5.6a5.8 5.8 0 011-6.8z" clip-path="url(&quot;#a&quot;)"/><path fill="none" stroke="#fff" stroke-miterlimit="50" stroke-width="6" d="M20.6 7c5.9 0 10.6 4.7 10.6 10.5S26.5 28 20.6 28 9.9 23.3 9.9 17.5 14.7 7 20.6 7z" clip-path="url(&quot;#b&quot;)"/><path fill="none" stroke="#fff" stroke-miterlimit="50" stroke-width="6" d="M21.5 56.7v0l-1-1v0l13.9-13.9v0l1 1v0z" clip-path="url(&quot;#c&quot;)"/><path fill="none" stroke="#fff" stroke-miterlimit="50" stroke-width="6" d="M21.6 55.1v0l-1 1.8v0L3.2 39.6v0l1-1.8v0z" clip-path="url(&quot;#d&quot;)"/><path fill="none" stroke="#fff" stroke-miterlimit="50" stroke-width="6" d="M49 30v0s-1 14.4-5.2 18.6c-4.3 4.2-10.8 4.6-14.5.9-3.8-3.7-3.4-10.1.9-14.4C34.5 31 49 30 49 30z" clip-path="url(&quot;#e&quot;)"/><path fill="none" stroke="#fff" stroke-miterlimit="50" stroke-width="6" d="M0 36.4v0S.7 46.9 3.8 50c3.2 3 7.9 3.4 10.6.7 2.8-2.8 2.5-7.4-.6-10.5S0 36.4 0 36.4z" clip-path="url(&quot;#f&quot;)"/></svg>