<svg xmlns="http://www.w3.org/2000/svg" viewBox="0 0 70 70"><defs/><defs><clipPath id="a"><path fill="#fff" d="M35 3.4a1.4 1.4 0 110 2.8 1.4 1.4 0 010-2.8zm0 60.2a1.4 1.4 0 110 2.8 1.4 1.4 0 010-2.8zm8-59.1a1.4 1.4 0 11-.6 2.7 1.4 1.4 0 01.7-2.7zM27.6 62.6a1.4 1.4 0 11-.7 2.7 1.4 1.4 0 01.7-2.7zm23.2-55a1.4 1.4 0 11-1.4 2.4 1.4 1.4 0 011.4-2.4zM20.6 59.7a1.4 1.4 0 11-1.4 2.5 1.4 1.4 0 011.4-2.5zm36.6-47a1.4 1.4 0 11-2 1.9 1.4 1.4 0 012-2zM14.6 55.1a1.4 1.4 0 11-2 2 1.4 1.4 0 012-2zm47.6-36a1.4 1.4 0 11-2.4 1.3 1.4 1.4 0 012.4-1.4zm-52.1 30a1.4 1.4 0 11-2.5 1.4 1.4 1.4 0 012.5-1.4zm55.3-22.5a1.4 1.4 0 11-2.8.8 1.4 1.4 0 012.7-.8zM7.1 42.3a1.4 1.4 0 11-2.7.7 1.4 1.4 0 012.7-.7zM66.4 35a1.4 1.4 0 11-2.8 0 1.4 1.4 0 012.8 0zm-60.2 0a1.4 1.4 0 11-2.8 0 1.4 1.4 0 012.8 0zm59.1 8.2a1.4 1.4 0 11-2.7-.8 1.4 1.4 0 012.7.8zM7.2 27.5a1.4 1.4 0 11-2.7-.8 1.4 1.4 0 012.7.8zm55 23.2a1.4 1.4 0 11-2.4-1.4 1.4 1.4 0 012.4 1.4zM10.1 20.6a1.4 1.4 0 11-2.5-1.4 1.4 1.4 0 012.5 1.4zm47 36.6a1.4 1.4 0 11-1.9-2 1.4 1.4 0 012 2zM14.7 14.6a1.4 1.4 0 11-2-2 1.4 1.4 0 012 2zm36 47.6a1.4 1.4 0 11-1.3-2.4 1.4 1.4 0 011.4 2.4zM20.7 10a1.4 1.4 0 11-1.4-2.4 1.4 1.4 0 011.4 2.4zM43 65.3a1.4 1.4 0 11-.8-2.7 1.4 1.4 0 01.8 2.7zM27.5 7.2a1.4 1.4 0 11-.7-2.7 1.4 1.4 0 01.7 2.7z"/></clipPath><clipPath id="b"><path fill="#fff" d="M34 0h2v9h-2zm0 61h2v9h-2zM0 36v-2h9v2zm61 0v-2h9v2z"/></clipPath><clipPath id="c"><path fill="#fff" d="M17 36v-2h17V11h2v25z"/></clipPath><clipPath id="d"><path fill="#fff" d="M35 31.5a3.5 3.5 0 110 7 3.5 3.5 0 010-7z"/></clipPath></defs><path fill="#FFFFFF" d="M35 3.4a1.4 1.4 0 110 2.8 1.4 1.4 0 010-2.8zm0 60.2a1.4 1.4 0 110 2.8 1.4 1.4 0 010-2.8zm8-59.1a1.4 1.4 0 11-.6 2.7 1.4 1.4 0 01.7-2.7zM27.6 62.6a1.4 1.4 0 11-.7 2.7 1.4 1.4 0 01.7-2.7zm23.2-55a1.4 1.4 0 11-1.4 2.4 1.4 1.4 0 011.4-2.4zM20.6 59.7a1.4 1.4 0 11-1.4 2.5 1.4 1.4 0 011.4-2.5zm36.6-47a1.4 1.4 0 11-2 1.9 1.4 1.4 0 012-2zM14.6 55.1a1.4 1.4 0 11-2 2 1.4 1.4 0 012-2zm47.6-36a1.4 1.4 0 11-2.4 1.3 1.4 1.4 0 012.4-1.4zm-52.1 30a1.4 1.4 0 11-2.5 1.4 1.4 1.4 0 012.5-1.4zm55.3-22.5a1.4 1.4 0 11-2.8.8 1.4 1.4 0 012.7-.8zM7.1 42.3a1.4 1.4 0 11-2.7.7 1.4 1.4 0 012.7-.7zM66.4 35a1.4 1.4 0 11-2.8 0 1.4 1.4 0 012.8 0zm-60.2 0a1.4 1.4 0 11-2.8 0 1.4 1.4 0 012.8 0zm59.1 8.2a1.4 1.4 0 11-2.7-.8 1.4 1.4 0 012.7.8zM7.2 27.5a1.4 1.4 0 11-2.7-.8 1.4 1.4 0 012.7.8zm55 23.2a1.4 1.4 0 11-2.4-1.4 1.4 1.4 0 012.4 1.4zM10.1 20.6a1.4 1.4 0 11-2.5-1.4 1.4 1.4 0 012.5 1.4zm47 36.6a1.4 1.4 0 11-1.9-2 1.4 1.4 0 012 2zM14.7 14.6a1.4 1.4 0 11-2-2 1.4 1.4 0 012 2zm36 47.6a1.4 1.4 0 11-1.3-2.4 1.4 1.4 0 011.4 2.4zM20.7 10a1.4 1.4 0 11-1.4-2.4 1.4 1.4 0 011.4 2.4zM43 65.3a1.4 1.4 0 11-.8-2.7 1.4 1.4 0 01.8 2.7zM27.5 7.2a1.4 1.4 0 11-.7-2.7 1.4 1.4 0 01.7 2.7z"/><path fill="none" stroke="#fff" stroke-miterlimit="50" stroke-width="6" d="M35 3.4a1.4 1.4 0 110 2.8 1.4 1.4 0 010-2.8zm0 60.2a1.4 1.4 0 110 2.8 1.4 1.4 0 010-2.8zm8-59.1a1.4 1.4 0 11-.6 2.7 1.4 1.4 0 01.7-2.7zM27.6 62.6a1.4 1.4 0 11-.7 2.7 1.4 1.4 0 01.7-2.7zm23.2-55a1.4 1.4 0 11-1.4 2.4 1.4 1.4 0 011.4-2.4zM20.6 59.7a1.4 1.4 0 11-1.4 2.5 1.4 1.4 0 011.4-2.5zm36.6-47a1.4 1.4 0 11-2 1.9 1.4 1.4 0 012-2zM14.6 55.1a1.4 1.4 0 11-2 2 1.4 1.4 0 012-2zm47.6-36a1.4 1.4 0 11-2.4 1.3 1.4 1.4 0 012.4-1.4zm-52.1 30a1.4 1.4 0 11-2.5 1.4 1.4 1.4 0 012.5-1.4zm55.3-22.5a1.4 1.4 0 11-2.8.8 1.4 1.4 0 012.7-.8zM7.1 42.3a1.4 1.4 0 11-2.7.7 1.4 1.4 0 012.7-.7zM66.4 35a1.4 1.4 0 11-2.8 0 1.4 1.4 0 012.8 0zm-60.2 0a1.4 1.4 0 11-2.8 0 1.4 1.4 0 012.8 0zm59.1 8.2a1.4 1.4 0 11-2.7-.8 1.4 1.4 0 012.7.8zM7.2 27.5a1.4 1.4 0 11-2.7-.8 1.4 1.4 0 012.7.8zm55 23.2a1.4 1.4 0 11-2.4-1.4 1.4 1.4 0 012.4 1.4zM10.1 20.6a1.4 1.4 0 11-2.5-1.4 1.4 1.4 0 012.5 1.4zm47 36.6a1.4 1.4 0 11-1.9-2 1.4 1.4 0 012 2zM14.7 14.6a1.4 1.4 0 11-2-2 1.4 1.4 0 012 2zm36 47.6a1.4 1.4 0 11-1.3-2.4 1.4 1.4 0 011.4 2.4zM20.7 10a1.4 1.4 0 11-1.4-2.4 1.4 1.4 0 011.4 2.4zM43 65.3a1.4 1.4 0 11-.8-2.7 1.4 1.4 0 01.8 2.7zM27.5 7.2a1.4 1.4 0 11-.7-2.7 1.4 1.4 0 01.7 2.7z" clip-path="url(&quot;#a&quot;)"/><path fill="#FFFFFF" d="M34 0h2v9h-2zm0 61h2v9h-2zM0 36v-2h9v2zm61 0v-2h9v2z"/><path fill="none" stroke="#fff" stroke-miterlimit="50" stroke-width="6" d="M34 0h2v9h-2zm0 61h2v9h-2zM0 36v-2h9v2zm61 0v-2h9v2z" clip-path="url(&quot;#b&quot;)"/><g><path fill="#FFFFFF" d="M17 36v-2h17V11h2v25z"/><path fill="none" stroke="#fff" stroke-miterlimit="50" stroke-width="6" d="M17 36v-2h17V11h2v25z" clip-path="url(&quot;#c&quot;)"/></g><g><path fill="#FFFFFF" d="M35 31.5a3.5 3.5 0 110 7 3.5 3.5 0 010-7z"/><path fill="none" stroke="#fff" stroke-miterlimit="50" stroke-width="6" d="M35 31.5a3.5 3.5 0 110 7 3.5 3.5 0 010-7z" clip-path="url(&quot;#d&quot;)"/></g></svg>