<svg xmlns="http://www.w3.org/2000/svg" viewBox="0 0 59 69"><defs/><defs><clipPath id="a"><path fill="#fff" d="M8.3 51.7a25 25 0 010-35.2C23.8 1 59 1 59 1s0 35.2-15.5 50.7a24.9 24.9 0 01-35.2 0z"/></clipPath><clipPath id="b"><path fill="#fff" d="M4 68.6S-2 21.4 58.2 1.7"/></clipPath><clipPath id="c"><path fill="#fff" d="M9.8 44.4v-.8H8.3v-19h1.5v18.3h28.6v1.5zm8.8-16.2v-.7H18v-14h1.5v13.2h25v1.5zM34.8 15v-.8H34V7.6h1.5v5.9H51V15z"/></clipPath></defs><path fill="none" stroke="#fff" stroke-miterlimit="50" stroke-width="6" d="M8.3 51.7a25 25 0 010-35.2C23.8 1 59 1 59 1v0s0 35.2-15.5 50.7a24.9 24.9 0 01-35.2 0z" clip-path="url(&quot;#a&quot;)"/><path fill="none" stroke="#fff" stroke-miterlimit="50" stroke-width="6" d="M4 68.6S-2 21.4 58.2 1.7" clip-path="url(&quot;#b&quot;)"/><path fill="none" stroke="#fff" stroke-miterlimit="50" stroke-width="6" d="M9.8 44.4v-.8H8.3v-19h1.5v18.3h28.6v1.5zm8.8-16.2v-.7H18v-14h1.5v13.2h25v1.5zM34.8 15v-.8H34V7.6h1.5v5.9H51V15z" clip-path="url(&quot;#c&quot;)"/></svg>