<svg xmlns="http://www.w3.org/2000/svg" viewBox="0 0 60 66"><defs/><defs><clipPath id="a"><path fill="#fff" d="M40.1 9L58 26.5a7 7 0 010 9.9l-27.2 27a7 7 0 01-3.6 2 7 7 0 01-2.8.5l-17-.2c-4 0-7.1-3.2-7.2-7L0 41.9a6.9 6.9 0 012.6-5.5L3 36 30.2 9a7 7 0 0110 0zM10 48.7a4.8 4.8 0 000 6.9 5 5 0 007 0 4.8 4.8 0 000-7 5 5 0 00-7 0z"/></clipPath><clipPath id="b"><path fill="#fff" d="M15.2 58.3S4 48.3 4 27 9 2 11 2c2.1 0 6 4.2 6.3 21.6"/></clipPath></defs><path fill="none" stroke="#fff" stroke-miterlimit="50" stroke-width="6" d="M40.1 9L58 26.5a7 7 0 010 9.9l-27.2 27a7 7 0 01-3.6 2 7 7 0 01-2.8.5l-17-.2c-4 0-7.1-3.2-7.2-7L0 41.9a6.9 6.9 0 012.6-5.5L3 36 30.2 9a7 7 0 0110 0zM10 48.7a4.8 4.8 0 000 6.9 5 5 0 007 0 4.8 4.8 0 000-7 5 5 0 00-7 0z" clip-path="url(&quot;#a&quot;)"/><path fill="none" stroke="#fff" stroke-miterlimit="50" stroke-width="6" d="M15.2 58.3v0S4 48.3 4 27 9 2 11 2c2.1 0 6 4.2 6.3 21.6" clip-path="url(&quot;#b&quot;)"/></svg>